<?xml version="1.0" encoding="UTF-8" standalone="no"?>
<!-- Created with Inkscape (http://www.inkscape.org/) -->

<svg
   version="1.1"
   id="svg2"
   width="605.33331"
   height="605.33331"
   viewBox="0 0 605.33331 605.33331"
   xmlns="http://www.w3.org/2000/svg"
   xmlns:svg="http://www.w3.org/2000/svg">
  <defs
     id="defs6" />
  <g
     id="g8"
     transform="matrix(1.3333333,0,0,-1.3333333,0,605.33333)">
    <path
       d="M 308.004,114.981 C 283.578,97.235 252.737,94.7 226.784,105.58 c -25.954,-10.885 -56.803,-8.352 -81.23,9.396 -24.425,17.746 -36.367,46.294 -34.039,74.339 -18.373,21.32 -25.496,51.442 -16.165,80.157 9.329,28.713 32.792,48.894 60.183,55.346 14.6,24.062 41.044,40.143 71.238,40.143 30.191,0 56.635,-16.078 71.237,-40.134 27.396,-6.45 50.86,-26.63 60.19,-55.347 9.33,-28.713 2.21,-58.83 -16.157,-80.15 2.332,-28.048 -9.61,-56.602 -34.037,-74.349 z m -81.231,225.177 c 62.611,0 113.386,-50.775 113.386,-113.386 0,-62.611 -50.775,-113.386 -113.386,-113.386 -62.611,0 -113.386,50.775 -113.386,113.386 0,62.611 50.775,113.386 113.386,113.386"
       style="fill:#254aa5;fill-opacity:1;fill-rule:evenodd;stroke:none"
       id="path10" />
    <path
       d="m 158.645,234.255 h -4.287 v 16.165 c -1.568,-1.469 -3.413,-2.553 -5.538,-3.251 v 3.892 c 1.115,0.364 2.334,1.057 3.647,2.078 1.313,1.026 2.214,2.219 2.698,3.584 h 3.48 z m 8.239,5.173 4.151,0.458 c 0.104,-0.844 0.37,-1.469 0.798,-1.875 0.427,-0.407 0.989,-0.61 1.692,-0.61 0.886,0 1.637,0.406 2.256,1.219 0.625,0.813 1.021,2.501 1.193,5.069 -1.078,-1.256 -2.427,-1.881 -4.042,-1.881 -1.761,0 -3.282,0.683 -4.559,2.037 -1.276,1.36 -1.917,3.126 -1.917,5.304 0,2.271 0.678,4.099 2.027,5.49 1.344,1.386 3.063,2.084 5.147,2.084 2.271,0 4.131,-0.88 5.589,-2.636 1.454,-1.755 2.183,-4.642 2.183,-8.658 0,-4.095 -0.76,-7.043 -2.276,-8.856 -1.516,-1.808 -3.491,-2.714 -5.923,-2.714 -1.751,0 -3.163,0.463 -4.241,1.396 -1.078,0.932 -1.771,2.323 -2.078,4.173 z m 9.71,9.371 c 0,1.386 -0.318,2.459 -0.953,3.22 -0.636,0.766 -1.376,1.146 -2.209,1.146 -0.792,0 -1.453,-0.313 -1.975,-0.938 -0.526,-0.625 -0.786,-1.651 -0.786,-3.078 0,-1.444 0.286,-2.506 0.854,-3.178 0.568,-0.677 1.282,-1.016 2.136,-1.016 0.823,0 1.521,0.323 2.084,0.974 0.568,0.651 0.849,1.61 0.849,2.87 z m 9.385,-8.788 4.271,0.438 c 0.12,-0.964 0.485,-1.73 1.084,-2.293 0.599,-0.567 1.292,-0.849 2.073,-0.849 0.896,0 1.657,0.365 2.277,1.089 0.619,0.729 0.932,1.829 0.932,3.293 0,1.369 -0.307,2.401 -0.927,3.089 -0.615,0.687 -1.417,1.031 -2.402,1.031 -1.229,0 -2.333,-0.547 -3.313,-1.635 l -3.48,0.505 2.199,11.643 h 11.341 v -4.011 h -8.091 l -0.672,-3.803 c 0.959,0.479 1.933,0.719 2.933,0.719 1.902,0 3.517,-0.693 4.835,-2.074 1.323,-1.386 1.984,-3.183 1.984,-5.392 0,-1.839 -0.531,-3.485 -1.599,-4.928 -1.459,-1.974 -3.475,-2.959 -6.059,-2.959 -2.068,0 -3.75,0.552 -5.053,1.662 -1.302,1.11 -2.083,2.6 -2.333,4.475 z m 22.736,6.314 c -1.11,0.469 -1.917,1.115 -2.417,1.933 -0.506,0.818 -0.756,1.719 -0.756,2.693 0,1.667 0.578,3.047 1.745,4.136 1.167,1.089 2.824,1.636 4.97,1.636 2.126,0 3.777,-0.547 4.949,-1.636 1.178,-1.089 1.766,-2.469 1.766,-4.136 0,-1.037 -0.271,-1.959 -0.813,-2.771 -0.536,-0.808 -1.297,-1.428 -2.271,-1.855 1.24,-0.495 2.183,-1.224 2.829,-2.183 0.646,-0.953 0.969,-2.058 0.969,-3.308 0,-2.068 -0.656,-3.745 -1.974,-5.037 -1.319,-1.292 -3.069,-1.938 -5.257,-1.938 -2.037,0 -3.73,0.531 -5.085,1.599 -1.599,1.266 -2.395,2.995 -2.395,5.194 0,1.208 0.302,2.318 0.901,3.334 0.599,1.011 1.547,1.792 2.839,2.339 z m 0.886,4.319 c 0,-0.855 0.239,-1.522 0.723,-1.996 0.485,-0.479 1.126,-0.719 1.933,-0.719 0.813,0 1.464,0.24 1.954,0.725 0.484,0.484 0.729,1.151 0.729,2.005 0,0.808 -0.239,1.448 -0.724,1.933 -0.484,0.485 -1.12,0.724 -1.917,0.724 -0.823,0 -1.48,-0.245 -1.969,-0.729 -0.485,-0.49 -0.729,-1.136 -0.729,-1.943 z m -0.397,-9.581 c 0,-1.182 0.303,-2.104 0.907,-2.766 0.604,-0.662 1.36,-0.99 2.266,-0.99 0.886,0 1.62,0.318 2.199,0.954 0.578,0.635 0.87,1.552 0.87,2.756 0,1.046 -0.298,1.891 -0.886,2.526 -0.589,0.636 -1.339,0.953 -2.245,0.953 -1.047,0 -1.829,-0.364 -2.339,-1.083 -0.516,-0.724 -0.772,-1.506 -0.772,-2.35"
       style="fill:#254aa5;fill-opacity:1;fill-rule:nonzero;stroke:none"
       id="path12" />
    <path
       d="m 226.773,425.197 c 109.568,0 198.424,-88.857 198.424,-198.426 0,-109.568 -88.856,-198.424 -198.424,-198.424 -109.571,0 -198.427,88.856 -198.427,198.424 0,109.569 88.856,198.426 198.427,198.426 z m 0,-7.087 c 105.654,0 191.338,-85.683 191.338,-191.339 0,-105.654 -85.684,-191.337 -191.338,-191.337 -105.656,0 -191.34,85.683 -191.34,191.337 0,105.656 85.684,191.339 191.34,191.339"
       style="fill:#254aa5;fill-opacity:1;fill-rule:evenodd;stroke:none"
       id="path14" />
    <path
       d="m 368.178,163.28 c 0.23,-0.115 0.403,-0.314 0.518,-0.595 0.117,-0.281 0.117,-0.536 0,-0.765 -0.225,-0.444 -0.546,-0.678 -0.964,-0.707 -0.419,-0.027 -0.828,-0.055 -1.226,-0.081 -0.293,-0.083 -0.521,-0.285 -0.685,-0.606 -0.443,-0.871 -0.061,-1.614 1.145,-2.229 l 2.912,-1.483 1.413,2.774 0.733,-0.374 -1.413,-2.775 7.747,-3.947 c 0.977,-0.497 1.833,-0.028 2.566,1.408 l 0.319,-0.163 -3.047,-5.983 -0.321,0.165 c 0.638,1.251 0.469,2.128 -0.51,2.626 l -7.746,3.946 -0.958,-1.878 -0.733,0.374 0.957,1.88 -0.71,0.361 c -1.467,0.748 -2.426,1.717 -2.877,2.909 -0.421,1.139 -0.328,2.304 0.279,3.496 0.359,0.702 0.818,1.209 1.381,1.52 0.493,0.248 0.9,0.291 1.22,0.127 z M 73.501,208.532 c -0.112,1.607 -0.708,2.374 -1.786,2.299 l -9.186,-0.643 c -2.19,-0.153 -3.858,0.479 -5.006,1.894 -0.885,1.107 -1.391,2.55 -1.514,4.33 -0.132,1.864 0.201,3.366 0.999,4.506 0.971,1.372 2.584,2.138 4.842,2.297 l 8.956,0.626 c 1.077,0.075 1.563,0.865 1.458,2.371 l 0.487,0.034 0.5,-7.136 -0.486,-0.032 c -0.106,1.506 -0.673,2.222 -1.699,2.15 l -9.29,-0.649 c -1.521,-0.106 -2.647,-0.479 -3.377,-1.112 -0.909,-0.77 -1.305,-1.992 -1.188,-3.667 0.226,-3.218 1.989,-4.71 5.291,-4.479 l 9.058,0.633 c 1.129,0.078 1.637,0.923 1.525,2.531 l 0.486,0.034 0.417,-5.954 z m -14.238,-15.283 -0.942,5.344 0.355,0.063 c 0.188,-1.064 0.821,-1.501 1.901,-1.309 l 6.385,1.126 c 0.625,0.111 1.065,0.374 1.323,0.794 0.257,0.42 0.337,0.898 0.241,1.44 -0.163,0.928 -0.817,1.772 -1.961,2.528 l -6.814,-1.202 c -1.08,-0.191 -1.527,-0.819 -1.34,-1.881 l -0.354,-0.063 -0.943,5.345 0.355,0.063 c 0.188,-1.064 0.822,-1.502 1.903,-1.31 l 6.865,1.209 c 0.541,0.095 0.866,0.267 0.981,0.514 0.113,0.246 0.097,0.678 -0.047,1.298 l 0.355,0.062 1.852,-3.54 -2.077,-0.366 c 1.59,-0.922 2.513,-2.108 2.769,-3.56 0.343,-1.943 -0.77,-3.14 -3.336,-3.593 l -5.777,-1.019 c -1.081,-0.19 -1.526,-0.817 -1.339,-1.882 z m 17.47,-2.708 c -0.368,-0.08 -0.697,-0.017 -0.985,0.183 -0.289,0.203 -0.473,0.487 -0.55,0.859 -0.08,0.367 -0.026,0.694 0.159,0.979 0.185,0.284 0.463,0.466 0.831,0.544 0.369,0.079 0.704,0.028 1.005,-0.155 0.303,-0.18 0.493,-0.456 0.571,-0.824 0.078,-0.369 0.019,-0.707 -0.18,-1.011 -0.198,-0.306 -0.482,-0.498 -0.851,-0.575 z m -15.446,-5.282 -1.266,5.963 0.352,0.074 c 0.272,-1.274 0.943,-1.798 2.017,-1.57 l 6.743,1.434 c 0.872,0.186 1.24,0.597 1.105,1.234 -0.053,0.252 -0.187,0.556 -0.404,0.914 l 0.377,0.08 2.219,-3.763 -9.586,-2.038 C 61.77,187.36 61.37,186.608 61.641,185.334 Z M 75.81,174.801 c -0.142,0.53 -0.792,0.869 -1.951,1.022 l -9.917,1.23 c -0.367,0.043 -0.574,0.121 -0.622,0.233 -0.048,0.112 0.089,0.298 0.409,0.562 l 7.938,6.254 c 0.907,0.724 1.272,1.416 1.094,2.078 l 0.347,0.094 1.306,-4.87 -0.348,-0.093 c -0.2,0.745 -0.531,1.055 -0.999,0.931 -0.204,-0.038 -0.477,-0.176 -0.825,-0.417 l -5.57,-4.227 6.457,-0.64 c 0.545,-0.049 0.977,-0.04 1.296,0.028 0.501,0.118 0.655,0.538 0.46,1.268 l 0.348,0.094 0.924,-3.454 z m -2.117,-13.524 c -1.222,-0.12 -2.411,0.145 -3.569,0.792 -1.158,0.649 -1.942,1.509 -2.355,2.581 -0.486,1.264 -0.422,2.512 0.191,3.739 0.656,1.354 1.856,2.367 3.601,3.036 1.633,0.626 3.161,0.689 4.584,0.189 1.423,-0.501 2.407,-1.465 2.955,-2.889 0.498,-1.296 0.473,-2.491 -0.071,-3.582 -0.547,-1.091 -1.436,-1.873 -2.667,-2.346 l -2.858,7.444 c -1.505,-0.578 -2.616,-1.431 -3.33,-2.56 -0.715,-1.129 -0.867,-2.228 -0.455,-3.302 0.295,-0.768 0.861,-1.404 1.697,-1.911 0.749,-0.465 1.514,-0.713 2.296,-0.743 z m 2.496,4.263 c 1.779,0.868 2.406,1.989 1.877,3.365 -0.595,1.551 -1.859,2.094 -3.795,1.631 z M 83.9,154.752 c -0.753,-0.336 -1.269,-0.19 -1.548,0.437 -0.147,0.33 -0.141,0.689 0.014,1.077 0.155,0.389 0.187,0.684 0.097,0.89 -0.118,0.264 -0.473,0.481 -1.065,0.651 -0.594,0.166 -1.118,0.149 -1.572,-0.053 l -5.514,-2.455 c -1.008,-0.449 -1.243,-1.267 -0.714,-2.458 l -0.328,-0.146 -2.47,5.545 0.329,0.148 c 0.524,-1.176 1.287,-1.541 2.293,-1.092 l 6.031,2.686 c 0.913,0.406 1.263,0.928 1.054,1.566 -0.112,0.251 -0.301,0.505 -0.565,0.763 l 0.352,0.157 2.968,-3.185 -2.139,-0.952 c 1.843,-0.306 2.968,-0.912 3.373,-1.821 0.153,-0.344 0.174,-0.686 0.062,-1.028 -0.11,-0.339 -0.331,-0.584 -0.658,-0.73 z m -1.908,-11.753 c -0.93,-0.515 -1.857,-0.579 -2.779,-0.188 -0.829,0.364 -1.492,0.995 -1.993,1.896 -0.181,0.33 -0.342,0.815 -0.48,1.453 -0.139,0.639 -0.284,1.094 -0.433,1.363 -0.184,0.332 -0.38,0.438 -0.59,0.321 l -0.174,0.315 3.487,1.933 0.212,-0.382 c -1.867,-1.585 -2.393,-3.113 -1.579,-4.581 0.283,-0.51 0.648,-0.867 1.094,-1.071 0.509,-0.247 1.019,-0.229 1.53,0.055 0.718,0.396 1.093,1.351 1.117,2.854 l 0.043,2.054 c 0.039,1.628 0.606,2.746 1.7,3.353 0.719,0.399 1.514,0.472 2.38,0.216 0.867,-0.254 1.553,-0.839 2.061,-1.753 0.25,-0.451 0.412,-0.94 0.488,-1.466 0.077,-0.526 0.161,-0.872 0.252,-1.037 0.099,-0.18 0.263,-0.246 0.492,-0.197 l 0.162,-0.293 -3.059,-1.697 -0.2,0.361 c 1.578,1.464 2.037,2.796 1.372,3.996 -0.249,0.451 -0.604,0.773 -1.066,0.97 -0.46,0.195 -0.909,0.171 -1.343,-0.07 -0.645,-0.358 -0.994,-1.287 -1.046,-2.785 l -0.072,-2.099 c -0.061,-1.799 -0.587,-2.972 -1.576,-3.521 z m 14.832,1.153 c -0.32,-0.2 -0.651,-0.254 -0.99,-0.164 -0.34,0.091 -0.61,0.296 -0.81,0.616 -0.2,0.322 -0.261,0.646 -0.186,0.977 0.077,0.33 0.274,0.595 0.595,0.797 0.32,0.199 0.652,0.265 0.997,0.198 0.346,-0.068 0.618,-0.26 0.818,-0.582 0.2,-0.318 0.26,-0.655 0.178,-1.01 -0.082,-0.354 -0.282,-0.632 -0.602,-0.832 z m -12.709,-10.245 -3.23,5.169 0.305,0.191 c 0.692,-1.106 1.503,-1.367 2.432,-0.787 l 5.847,3.655 c 0.757,0.473 0.962,0.985 0.616,1.538 -0.136,0.217 -0.367,0.458 -0.692,0.719 l 0.327,0.206 3.373,-2.777 -8.312,-5.193 c -0.93,-0.583 -1.05,-1.426 -0.359,-2.532 z m 6.598,-6.428 c -0.897,0.084 -1.586,0.218 -2.071,0.402 -0.61,0.243 -1.111,0.644 -1.506,1.206 -0.756,1.082 -0.383,2.149 1.12,3.202 l 6.722,4.707 -0.782,1.116 c -0.04,0.056 -0.015,0.126 0.074,0.209 0.097,0.07 0.175,0.091 0.233,0.07 0.866,-0.4 2.417,-0.642 4.656,-0.728 l 0.549,-0.024 -2.803,-1.963 1.461,-2.085 -0.675,-0.473 -1.46,2.086 -6.131,-4.294 c -1.167,-0.816 -1.533,-1.533 -1.101,-2.149 0.286,-0.409 0.871,-0.69 1.754,-0.847 z m 15.625,-4.849 c -0.158,0.202 -0.489,0.292 -0.993,0.268 -0.404,-0.011 -0.783,-0.069 -1.138,-0.172 L 92.78,119.218 c -2.704,-0.829 -4.553,-0.608 -5.545,0.662 -0.77,0.986 -0.73,1.812 0.122,2.477 0.243,0.191 0.533,0.223 0.872,0.095 0.28,-0.107 0.515,-0.283 0.705,-0.527 0.117,-0.148 0.256,-0.495 0.421,-1.04 0.078,-0.268 0.191,-0.495 0.339,-0.683 0.507,-0.649 2.025,-0.463 4.558,0.557 l 4.518,8.885 c 0.32,0.619 0.493,1.026 0.517,1.219 0.047,0.299 -0.036,0.669 -0.249,1.11 l 0.283,0.224 3.263,-4.178 -0.283,-0.22 c -0.624,0.797 -1.118,1.053 -1.482,0.768 -0.189,-0.148 -0.364,-0.371 -0.525,-0.665 l -3.407,-6.531 6.505,2.189 c 0.586,0.196 0.941,0.342 1.062,0.437 0.121,0.095 0.171,0.27 0.146,0.523 -0.024,0.253 -0.157,0.535 -0.4,0.847 l 0.286,0.22 2.137,-2.736 z m 8.47,-16.119 c -1.289,-1.211 -2.733,-1.842 -4.333,-1.894 -1.6,-0.054 -2.974,0.499 -4.122,1.655 -1.074,1.085 -1.584,2.404 -1.525,3.957 0.058,1.555 0.671,2.935 1.837,4.144 1.204,1.245 2.538,1.924 4.004,2.036 1.55,0.123 2.961,-0.428 4.231,-1.656 1.259,-1.215 1.88,-2.589 1.864,-4.123 -0.016,-1.536 -0.668,-2.908 -1.956,-4.119 z m -2.418,0.904 c 1.191,1.234 1.977,2.429 2.357,3.588 0.473,1.427 0.234,2.6 -0.716,3.516 -0.667,0.645 -1.465,0.842 -2.394,0.596 -0.857,-0.221 -1.708,-0.769 -2.553,-1.646 -1.144,-1.183 -1.924,-2.399 -2.338,-3.642 -0.486,-1.439 -0.301,-2.571 0.549,-3.393 0.754,-0.727 1.667,-0.917 2.739,-0.57 0.832,0.269 1.618,0.788 2.356,1.551 z m 17.884,-0.835 c -0.167,-0.193 -0.402,-0.314 -0.702,-0.358 -0.301,-0.046 -0.548,0.015 -0.742,0.183 -0.376,0.328 -0.527,0.698 -0.452,1.109 0.074,0.412 0.146,0.816 0.216,1.209 -0.008,0.304 -0.149,0.575 -0.422,0.811 -0.737,0.64 -1.551,0.449 -2.438,-0.572 l -2.144,-2.466 2.348,-2.042 -0.54,-0.622 -2.347,2.042 -5.705,-6.562 c -0.721,-0.828 -0.472,-1.77 0.744,-2.828 l -0.235,-0.272 -5.068,4.404 0.237,0.272 c 1.061,-0.921 1.952,-0.968 2.672,-0.141 l 5.703,6.563 -1.59,1.383 0.539,0.621 1.592,-1.385 0.523,0.603 c 1.079,1.242 2.253,1.938 3.519,2.088 1.206,0.132 2.314,-0.239 3.323,-1.117 0.597,-0.516 0.977,-1.087 1.141,-1.707 0.122,-0.539 0.066,-0.943 -0.172,-1.216 z m 6.701,-18.808 c -0.947,-1.303 -2.145,-1.99 -3.596,-2.06 -1.278,-0.068 -2.534,0.347 -3.769,1.244 -0.514,0.373 -1.041,0.931 -1.582,1.674 -0.542,0.743 -0.916,1.19 -1.124,1.341 -0.348,0.253 -0.721,0.174 -1.125,-0.233 l -0.457,0.332 2.627,4.928 0.458,-0.332 c -0.911,-3.09 -0.366,-5.362 1.632,-6.815 0.61,-0.442 1.294,-0.653 2.053,-0.63 0.866,0.027 1.561,0.4 2.086,1.122 0.847,1.164 0.859,2.683 0.034,4.553 l -1.152,2.618 c -0.959,2.179 -0.939,3.957 0.059,5.331 0.785,1.083 1.762,1.703 2.927,1.864 1.165,0.159 2.297,-0.159 3.394,-0.955 0.624,-0.453 1.143,-1.007 1.56,-1.659 0.417,-0.651 0.735,-1.058 0.957,-1.221 0.305,-0.221 0.694,-0.153 1.166,0.205 l 0.436,-0.319 -2.762,-4.765 -0.5,0.363 c 0.958,2.95 0.521,5.091 -1.311,6.421 -0.584,0.425 -1.205,0.605 -1.863,0.544 -0.66,-0.062 -1.215,-0.405 -1.67,-1.029 -0.393,-0.541 -0.517,-1.236 -0.37,-2.085 0.104,-0.5 0.379,-1.302 0.825,-2.411 l 1.111,-2.714 c 0.918,-2.237 0.905,-4.007 -0.044,-5.312 z m 10.902,-7.326 c -1.223,-0.779 -2.247,-1.267 -3.073,-1.464 -1.163,-0.3 -2.264,-0.148 -3.303,0.453 -1.174,0.676 -1.904,1.693 -2.192,3.047 -0.313,1.447 -0.023,2.944 0.87,4.487 0.89,1.547 2.082,2.561 3.57,3.049 1.489,0.486 2.998,0.287 4.528,-0.596 0.891,-0.514 1.532,-1.18 1.92,-1.998 0.388,-0.819 0.42,-1.51 0.095,-2.075 -0.154,-0.267 -0.384,-0.443 -0.688,-0.523 -0.304,-0.083 -0.599,-0.042 -0.881,0.121 -0.297,0.171 -0.478,0.416 -0.545,0.73 -0.064,0.316 -0.029,0.591 0.109,0.83 0.257,0.445 0.321,0.898 0.191,1.359 -0.13,0.461 -0.425,0.826 -0.885,1.09 -1.085,0.626 -2.174,0.612 -3.266,-0.046 -0.797,-0.488 -1.457,-1.187 -1.982,-2.094 -0.676,-1.172 -0.936,-2.378 -0.779,-3.618 0.156,-1.238 0.709,-2.131 1.659,-2.68 1.218,-0.704 2.699,-0.608 4.443,0.286 z m 11.842,7.929 c -0.176,-0.332 -0.434,-0.546 -0.774,-0.636 -0.339,-0.092 -0.677,-0.049 -1.01,0.129 -0.332,0.177 -0.55,0.428 -0.648,0.753 -0.1,0.325 -0.06,0.654 0.117,0.986 0.176,0.334 0.431,0.557 0.764,0.671 0.334,0.115 0.666,0.083 0.998,-0.093 0.334,-0.178 0.553,-0.44 0.66,-0.788 0.107,-0.349 0.071,-0.689 -0.107,-1.022 z m -5.88,-15.227 -5.383,2.863 0.168,0.318 c 1.152,-0.613 1.983,-0.433 2.499,0.536 l 3.237,6.086 c 0.418,0.788 0.34,1.336 -0.236,1.641 -0.226,0.121 -0.547,0.214 -0.959,0.278 l 0.182,0.34 4.308,-0.719 -4.6,-8.653 c -0.516,-0.969 -0.198,-1.759 0.952,-2.371 z m 13.069,-1.009 c -0.746,-0.976 -1.75,-1.667 -3.014,-2.071 -1.265,-0.404 -2.43,-0.393 -3.494,0.038 -1.256,0.507 -2.124,1.405 -2.604,2.689 -0.543,1.402 -0.465,2.971 0.237,4.704 0.654,1.622 1.65,2.782 2.987,3.482 1.337,0.699 2.714,0.763 4.128,0.191 1.288,-0.52 2.145,-1.353 2.571,-2.495 0.425,-1.143 0.391,-2.326 -0.104,-3.551 l -7.393,2.986 c -0.604,-1.494 -0.737,-2.887 -0.4,-4.181 0.339,-1.292 1.04,-2.154 2.105,-2.583 0.763,-0.309 1.616,-0.329 2.556,-0.062 0.851,0.23 1.554,0.621 2.111,1.173 z m -1.416,4.733 c 0.579,1.893 0.185,3.115 -1.183,3.667 -1.538,0.622 -2.798,0.068 -3.778,-1.662 z m 13.729,-13.446 -5.131,1.767 0.116,0.34 c 1.023,-0.352 1.711,-0.008 2.068,1.03 l 2.112,6.129 c 0.207,0.599 0.188,1.113 -0.054,1.541 -0.243,0.429 -0.623,0.734 -1.143,0.911 -0.891,0.306 -1.946,0.143 -3.16,-0.49 l -2.254,-6.543 c -0.357,-1.038 -0.024,-1.732 0.996,-2.083 l -0.116,-0.341 -5.132,1.768 0.116,0.34 c 1.023,-0.353 1.712,-0.01 2.069,1.029 l 2.269,6.59 c 0.179,0.519 0.188,0.888 0.028,1.107 -0.16,0.219 -0.547,0.415 -1.158,0.588 l 0.118,0.341 3.993,-0.096 -0.686,-1.994 c 1.577,0.944 3.062,1.176 4.456,0.696 1.865,-0.642 2.372,-2.197 1.524,-4.66 l -1.909,-5.545 c -0.358,-1.038 -0.025,-1.733 0.996,-2.086 z m 12.642,1.056 c -0.941,-1.102 -1.778,-1.868 -2.51,-2.297 -1.024,-0.626 -2.122,-0.805 -3.291,-0.535 -1.321,0.305 -2.317,1.063 -2.987,2.274 -0.723,1.294 -0.882,2.808 -0.482,4.545 0.401,1.739 1.243,3.06 2.524,3.959 1.282,0.902 2.783,1.153 4.505,0.756 1.002,-0.232 1.809,-0.683 2.42,-1.352 0.612,-0.669 0.843,-1.32 0.697,-1.955 -0.07,-0.301 -0.238,-0.536 -0.505,-0.702 -0.268,-0.168 -0.561,-0.213 -0.878,-0.141 -0.334,0.078 -0.578,0.256 -0.733,0.539 -0.155,0.283 -0.202,0.557 -0.14,0.824 0.115,0.501 0.044,0.953 -0.215,1.357 -0.259,0.403 -0.648,0.665 -1.165,0.783 -1.219,0.282 -2.256,-0.05 -3.108,-0.998 -0.62,-0.7 -1.048,-1.562 -1.283,-2.581 -0.305,-1.321 -0.2,-2.549 0.311,-3.688 0.511,-1.14 1.301,-1.832 2.37,-2.08 1.371,-0.315 2.76,0.209 4.165,1.574 z m 12.649,-2.227 c -0.546,-1.099 -1.401,-1.968 -2.565,-2.606 -1.163,-0.64 -2.309,-0.848 -3.437,-0.631 -1.329,0.26 -2.353,0.975 -3.068,2.145 -0.801,1.273 -1.023,2.827 -0.666,4.662 0.334,1.717 1.09,3.046 2.268,3.988 1.179,0.94 2.517,1.265 4.016,0.975 1.363,-0.266 2.364,-0.919 2.999,-1.959 0.637,-1.041 0.829,-2.21 0.576,-3.506 l -7.827,1.522 c -0.307,-1.583 -0.171,-2.976 0.406,-4.181 0.579,-1.202 1.431,-1.915 2.56,-2.135 0.808,-0.157 1.648,-0.014 2.52,0.428 0.791,0.388 1.406,0.905 1.848,1.553 z m -2.294,4.377 c 0.207,1.968 -0.413,3.092 -1.859,3.375 -1.63,0.317 -2.761,-0.468 -3.393,-2.354 z m 19.975,-8.795 c -0.367,-0.261 -0.734,-0.522 -1.102,-0.782 -0.436,-0.272 -0.851,-0.389 -1.243,-0.356 -1.043,0.092 -1.584,0.793 -1.624,2.104 -0.61,-0.462 -1.289,-0.86 -2.041,-1.189 -0.752,-0.331 -1.341,-0.477 -1.769,-0.44 -0.752,0.067 -1.379,0.375 -1.881,0.927 -0.502,0.551 -0.723,1.177 -0.663,1.878 0.133,1.504 1.081,2.608 2.847,3.314 1.196,0.482 2.497,0.892 3.905,1.234 l 0.081,0.948 c 0.163,1.862 -0.319,2.843 -1.445,2.941 -1.283,0.113 -1.954,-0.189 -2.018,-0.908 -0.012,-0.153 -0.012,-0.309 -0.001,-0.464 0.013,-0.157 0.009,-0.346 -0.011,-0.568 -0.029,-0.325 -0.165,-0.601 -0.409,-0.83 -0.243,-0.227 -0.527,-0.328 -0.852,-0.298 -0.342,0.029 -0.607,0.146 -0.795,0.353 -0.188,0.205 -0.271,0.446 -0.248,0.719 0.081,0.922 0.616,1.625 1.605,2.106 0.847,0.409 1.771,0.567 2.779,0.48 1.367,-0.119 2.317,-0.478 2.85,-1.075 0.58,-0.654 0.805,-1.717 0.678,-3.185 l -0.494,-5.637 c -0.058,-0.667 0.117,-1.017 0.527,-1.054 0.308,-0.027 0.733,0.116 1.277,0.43 z m -4.021,1.565 0.392,4.484 c -1.372,-0.345 -2.32,-0.658 -2.844,-0.939 -0.922,-0.504 -1.422,-1.201 -1.5,-2.089 -0.124,-1.418 0.437,-2.181 1.684,-2.291 0.649,-0.055 1.405,0.221 2.268,0.835 z m 17.858,-2.235 -5.425,-0.19 -0.013,0.36 c 1.082,0.038 1.601,0.605 1.564,1.702 l -0.227,6.479 c -0.023,0.633 -0.224,1.107 -0.604,1.42 -0.38,0.313 -0.843,0.459 -1.392,0.439 -0.943,-0.031 -1.868,-0.562 -2.776,-1.589 l 0.241,-6.915 c 0.038,-1.097 0.599,-1.626 1.679,-1.588 l 0.011,-0.361 -5.424,-0.189 -0.013,0.359 c 1.08,0.039 1.602,0.607 1.563,1.703 l -0.243,6.967 c -0.02,0.547 -0.143,0.895 -0.372,1.042 -0.227,0.147 -0.657,0.191 -1.291,0.134 l -0.012,0.361 3.761,1.34 0.074,-2.107 c 1.133,1.448 2.438,2.195 3.912,2.246 1.97,0.07 3.002,-1.199 3.092,-3.803 l 0.204,-5.863 c 0.039,-1.096 0.599,-1.624 1.678,-1.588 z m 14.028,2.071 c -1.233,-0.47 -2.488,-1.071 -3.767,-1.8 l -0.161,1.844 c -0.764,-1.307 -1.908,-2.026 -3.428,-2.16 -1.042,-0.091 -2.026,0.245 -2.954,1.011 -1.151,0.972 -1.812,2.42 -1.98,4.342 -0.148,1.695 0.251,3.22 1.201,4.563 0.949,1.345 2.185,2.086 3.704,2.218 1.146,0.1 2.031,-0.183 2.658,-0.851 l -0.36,4.125 c -0.051,0.581 -0.21,0.911 -0.475,0.991 -0.088,0.027 -0.517,0.007 -1.287,-0.061 l -0.045,0.513 c 0.772,0.239 2.02,0.728 3.747,1.464 l 1.3,-14.863 c 0.046,-0.529 0.202,-0.843 0.469,-0.939 0.161,-0.073 0.61,-0.077 1.343,-0.012 z m -4.023,1.128 -0.482,5.488 c -0.076,0.876 -0.38,1.547 -0.912,2.021 -0.532,0.474 -1.157,0.677 -1.873,0.615 -1.077,-0.094 -1.87,-0.675 -2.379,-1.741 -0.438,-0.904 -0.6,-1.997 -0.488,-3.287 0.132,-1.507 0.532,-2.729 1.198,-3.656 0.689,-0.995 1.538,-1.449 2.546,-1.362 0.668,0.059 1.175,0.223 1.519,0.495 0.346,0.276 0.637,0.748 0.871,1.427 z m 22.618,14.702 -0.601,-0.139 c -0.608,1.179 -1.013,1.87 -1.218,2.069 -0.584,0.551 -1.444,0.696 -2.581,0.434 l -2.306,-0.533 3.09,-13.384 c 0.258,-1.12 1.206,-1.49 2.845,-1.113 l 0.109,-0.476 -7.47,-1.724 -0.109,0.476 c 1.637,0.378 2.327,1.127 2.067,2.246 l -3.089,13.385 -2.006,-0.463 c -1.302,-0.301 -2.106,-0.821 -2.412,-1.56 -0.134,-0.331 -0.194,-1.137 -0.18,-2.418 l -0.601,-0.14 -0.834,4.297 14.162,3.269 z m 13.601,-4.807 c 0.077,-1.224 -0.229,-2.404 -0.917,-3.537 -0.688,-1.137 -1.576,-1.891 -2.662,-2.265 -1.281,-0.441 -2.525,-0.333 -3.729,0.321 -1.33,0.704 -2.299,1.939 -2.908,3.705 -0.569,1.655 -0.578,3.184 -0.029,4.588 0.551,1.404 1.547,2.356 2.989,2.852 1.314,0.453 2.506,0.388 3.578,-0.196 1.07,-0.584 1.822,-1.499 2.253,-2.748 l -7.541,-2.595 c 0.525,-1.525 1.339,-2.663 2.442,-3.417 1.103,-0.755 2.198,-0.944 3.284,-0.57 0.779,0.268 1.434,0.812 1.969,1.629 0.491,0.732 0.766,1.49 0.823,2.27 z m -4.176,2.645 c -0.803,1.808 -1.902,2.473 -3.297,1.992 -1.568,-0.539 -2.155,-1.785 -1.761,-3.735 z m 15.62,1.612 c -0.138,-1.443 -0.384,-2.552 -0.738,-3.323 -0.481,-1.1 -1.278,-1.875 -2.39,-2.325 -1.256,-0.508 -2.506,-0.457 -3.75,0.15 -1.334,0.645 -2.335,1.794 -3.002,3.448 -0.669,1.654 -0.737,3.217 -0.203,4.69 0.533,1.473 1.618,2.54 3.257,3.202 0.953,0.385 1.872,0.479 2.756,0.283 0.885,-0.198 1.448,-0.6 1.694,-1.204 0.115,-0.286 0.11,-0.574 -0.012,-0.864 -0.123,-0.291 -0.335,-0.497 -0.638,-0.618 -0.318,-0.131 -0.622,-0.123 -0.91,0.02 -0.288,0.143 -0.485,0.341 -0.588,0.595 -0.192,0.477 -0.509,0.806 -0.953,0.987 -0.444,0.182 -0.912,0.174 -1.404,-0.025 -1.161,-0.47 -1.819,-1.337 -1.975,-2.601 -0.103,-0.93 0.04,-1.881 0.431,-2.85 0.509,-1.257 1.297,-2.204 2.371,-2.843 1.073,-0.64 2.115,-0.755 3.133,-0.342 1.304,0.525 2.141,1.752 2.511,3.677 z m 14.665,2.791 -4.794,-2.548 -0.168,0.318 c 0.953,0.508 1.173,1.245 0.657,2.212 l -2.824,5.317 c -0.751,1.408 -1.692,1.809 -2.828,1.206 -0.893,-0.474 -1.488,-1.364 -1.786,-2.669 l 3.237,-6.086 c 0.516,-0.97 1.25,-1.201 2.204,-0.693 l 0.17,-0.318 -4.793,-2.549 -0.17,0.319 c 0.954,0.506 1.174,1.246 0.659,2.214 l -5.966,11.221 c -0.282,0.529 -0.55,0.794 -0.802,0.797 -0.163,0.011 -0.56,-0.153 -1.196,-0.491 l -0.219,0.408 c 0.549,0.506 1.492,1.434 2.831,2.787 l 3.671,-6.904 c 0.378,1.773 1.149,2.971 2.316,3.59 1.893,1.006 3.449,0.359 4.675,-1.942 l 2.753,-5.178 c 0.515,-0.97 1.251,-1.201 2.203,-0.692 z m 12.39,7.072 -4.7,-2.713 -0.18,0.311 c 0.936,0.541 1.129,1.286 0.579,2.237 l -3.24,5.613 c -0.318,0.549 -0.716,0.874 -1.198,0.972 -0.483,0.097 -0.962,0.009 -1.437,-0.265 -0.816,-0.472 -1.385,-1.375 -1.705,-2.707 l 3.46,-5.992 c 0.549,-0.952 1.291,-1.157 2.226,-0.617 l 0.182,-0.312 -4.702,-2.714 -0.179,0.313 c 0.935,0.54 1.129,1.286 0.579,2.237 l -3.485,6.036 c -0.273,0.475 -0.547,0.724 -0.817,0.747 -0.27,0.022 -0.671,-0.141 -1.204,-0.489 l -0.181,0.313 2.693,2.95 1.055,-1.826 c 0.321,1.809 1.121,3.083 2.398,3.82 1.709,0.987 3.214,0.35 4.517,-1.908 l 2.934,-5.078 c 0.548,-0.951 1.29,-1.157 2.226,-0.615 z m 7.551,12.688 c 0.968,-1.479 1.339,-3.012 1.112,-4.597 -0.225,-1.584 -1.007,-2.841 -2.346,-3.771 -1.255,-0.87 -2.642,-1.14 -4.162,-0.814 -1.52,0.326 -2.775,1.169 -3.762,2.529 -1.017,1.401 -1.454,2.834 -1.308,4.296 0.148,1.548 0.935,2.841 2.365,3.879 1.414,1.028 2.877,1.402 4.384,1.118 1.509,-0.28 2.747,-1.161 3.717,-2.64 z m -1.31,-2.224 c -1.009,1.387 -2.05,2.37 -3.125,2.945 -1.323,0.713 -2.519,0.682 -3.588,-0.096 -0.749,-0.544 -1.083,-1.294 -1.001,-2.254 0.069,-0.883 0.461,-1.816 1.178,-2.801 0.966,-1.332 2.027,-2.309 3.18,-2.935 1.333,-0.726 2.479,-0.741 3.435,-0.047 0.848,0.616 1.193,1.481 1.04,2.598 -0.12,0.866 -0.494,1.73 -1.119,2.59 z m 11.257,3.277 -4.619,-4.017 -0.237,0.272 c 0.997,0.868 1.135,1.714 0.416,2.543 l -8.422,9.688 c -0.303,0.349 -0.57,0.537 -0.8,0.565 -0.228,0.03 -0.505,-0.099 -0.829,-0.379 -0.168,-0.146 -0.377,-0.351 -0.626,-0.612 l -0.254,0.29 c 0.501,0.707 1.289,1.917 2.37,3.628 l 10.21,-11.745 c 0.72,-0.83 1.573,-0.816 2.555,0.04 z m 6.306,13.352 c 1.165,-1.329 1.745,-2.796 1.741,-4.396 -0.003,-1.601 -0.604,-2.954 -1.798,-4.061 -1.123,-1.036 -2.46,-1.498 -4.009,-1.386 -1.55,0.112 -2.909,0.774 -4.077,1.982 -1.202,1.246 -1.834,2.603 -1.893,4.072 -0.07,1.551 0.531,2.943 1.799,4.17 1.26,1.215 2.656,1.788 4.19,1.719 1.53,-0.069 2.88,-0.77 4.047,-2.1 z m -0.988,-2.383 c -1.191,1.233 -2.36,2.059 -3.504,2.481 -1.411,0.521 -2.591,0.324 -3.54,-0.593 -0.666,-0.644 -0.893,-1.434 -0.678,-2.372 0.191,-0.865 0.709,-1.734 1.555,-2.61 1.145,-1.185 2.329,-2.006 3.559,-2.464 1.422,-0.535 2.558,-0.39 3.408,0.432 0.754,0.726 0.977,1.632 0.667,2.717 -0.238,0.841 -0.729,1.645 -1.467,2.409 z m 6.768,15.244 -1.372,-1.635 c 0.642,-0.114 1.287,-0.441 1.93,-0.983 0.919,-0.771 1.411,-1.691 1.474,-2.764 0.063,-1.071 -0.308,-2.086 -1.112,-3.046 -0.309,-0.368 -0.646,-0.689 -1.011,-0.964 -0.162,-1.072 -0.052,-1.77 0.329,-2.09 0.407,-0.342 1.294,0.302 2.66,1.93 1.324,1.577 2.385,2.51 3.189,2.799 0.756,0.262 1.561,0.033 2.414,-0.683 0.882,-0.738 1.182,-1.942 0.901,-3.609 -0.275,-1.582 -0.947,-3.01 -2.018,-4.285 -0.88,-1.051 -1.859,-1.684 -2.937,-1.9 -0.872,-0.186 -1.524,-0.097 -1.959,0.267 -0.367,0.308 -0.555,0.858 -0.564,1.648 -0.029,0.739 -0.05,1.475 -0.064,2.203 -0.311,-0.209 -0.65,-0.339 -1.017,-0.389 -0.367,-0.05 -0.642,0.002 -0.825,0.155 -0.408,0.344 -0.65,0.893 -0.729,1.654 -0.035,0.386 -0.018,1.032 0.049,1.939 -1.562,-0.794 -2.972,-0.662 -4.235,0.396 -0.879,0.739 -1.355,1.686 -1.425,2.843 -0.071,1.156 0.345,2.273 1.249,3.35 0.385,0.46 0.981,0.917 1.788,1.371 0.806,0.454 1.325,0.831 1.553,1.13 l 0.963,1.308 z m -0.046,-4.697 c -0.787,0.663 -1.628,1.088 -2.522,1.279 -1.016,0.203 -1.782,-0.006 -2.299,-0.623 -0.431,-0.512 -0.57,-1.051 -0.418,-1.616 0.154,-0.564 0.532,-1.076 1.13,-1.535 0.85,-0.668 1.684,-1.088 2.503,-1.26 0.978,-0.194 1.738,0.031 2.278,0.675 0.826,0.985 0.603,2.011 -0.672,3.08 z m 8.416,-3.535 c -0.511,0.43 -1.165,0.318 -1.96,-0.336 -0.399,-0.315 -1.061,-1.024 -1.987,-2.127 -0.718,-0.855 -1.416,-1.556 -2.098,-2.101 0.13,-1.207 0.424,-2.002 0.884,-2.388 0.945,-0.794 2.23,-0.225 3.85,1.707 0.992,1.181 1.582,2.287 1.773,3.314 0.167,0.89 0.012,1.534 -0.462,1.931 z m -0.533,19.914 c -0.159,-0.203 -0.166,-0.544 -0.02,-1.029 0.107,-0.39 0.256,-0.743 0.441,-1.063 l 6.17,-10.239 c 1.457,-2.423 1.689,-4.269 0.698,-5.539 -0.771,-0.987 -1.582,-1.147 -2.434,-0.482 -0.242,0.189 -0.343,0.465 -0.303,0.824 0.037,0.298 0.15,0.569 0.341,0.812 0.116,0.148 0.419,0.369 0.909,0.661 0.24,0.14 0.432,0.303 0.58,0.493 0.506,0.648 -0.041,2.077 -1.645,4.287 l -9.713,2.235 c -0.678,0.16 -1.115,0.229 -1.307,0.206 -0.303,-0.025 -0.642,-0.196 -1.017,-0.51 l -0.285,0.222 3.262,4.175 0.285,-0.221 c -0.624,-0.798 -0.752,-1.339 -0.389,-1.625 0.189,-0.147 0.449,-0.262 0.774,-0.347 l 7.16,-1.725 -3.697,5.781 c -0.333,0.522 -0.56,0.831 -0.681,0.925 -0.123,0.095 -0.303,0.1 -0.543,0.016 -0.24,-0.084 -0.482,-0.282 -0.725,-0.592 l -0.282,0.221 2.137,2.735 z m 13.63,12.289 c 1.502,-0.93 2.488,-2.163 2.952,-3.695 0.465,-1.531 0.287,-3.001 -0.533,-4.41 -0.77,-1.319 -1.912,-2.151 -3.428,-2.495 -1.515,-0.349 -3.008,-0.113 -4.477,0.701 -1.517,0.84 -2.516,1.954 -3.001,3.34 -0.523,1.465 -0.353,2.972 0.501,4.515 0.849,1.53 2.015,2.486 3.502,2.868 1.487,0.383 2.982,0.107 4.484,-0.824 z m -0.247,-2.569 c -1.5,0.833 -2.859,1.28 -4.077,1.347 -1.5,0.088 -2.572,-0.447 -3.211,-1.601 -0.449,-0.81 -0.434,-1.632 0.045,-2.465 0.435,-0.771 1.185,-1.453 2.251,-2.042 1.439,-0.798 2.814,-1.237 4.123,-1.315 1.516,-0.096 2.561,0.374 3.134,1.409 0.508,0.914 0.456,1.847 -0.156,2.793 -0.476,0.735 -1.179,1.36 -2.109,1.874 z m 16.399,31.248 c 1.303,-2.54 1.466,-5.082 0.488,-7.627 -0.946,-2.466 -2.514,-4.132 -4.702,-5.001 -2.095,-0.813 -4.317,-0.767 -6.671,0.136 -2.305,0.885 -3.971,2.397 -4.996,4.534 -1.025,2.14 -1.095,4.362 -0.211,6.667 0.363,0.945 0.881,1.853 1.556,2.725 0.673,0.87 1.033,1.361 1.076,1.473 0.182,0.427 0.002,0.843 -0.538,1.255 l 0.202,0.527 5.511,-1.867 -0.231,-0.6 c -1.456,0.227 -2.769,0.024 -3.939,-0.609 -1.171,-0.635 -2.014,-1.623 -2.532,-2.968 -0.689,-1.793 -0.521,-3.466 0.501,-5.015 0.971,-1.438 2.531,-2.57 4.676,-3.394 2.097,-0.805 4.015,-0.952 5.753,-0.444 1.738,0.508 2.94,1.626 3.604,3.356 0.56,1.456 0.728,2.88 0.508,4.268 -0.078,0.564 -0.32,1.345 -0.727,2.345 z m 6.12,13.079 -1.406,-5.243 -0.347,0.093 c 0.279,1.043 -0.11,1.708 -1.17,1.991 l -5.815,1.558 c -1.542,0.412 -2.477,0 -2.809,-1.243 -0.262,-0.979 -0.018,-2.021 0.731,-3.127 l 6.661,-1.786 c 1.06,-0.282 1.729,0.097 2.009,1.14 l 0.348,-0.092 -1.404,-5.243 -0.35,0.093 c 0.281,1.044 -0.109,1.707 -1.169,1.992 l -12.275,3.289 c -0.58,0.155 -0.956,0.14 -1.13,-0.043 -0.117,-0.111 -0.27,-0.514 -0.458,-1.21 l -0.446,0.12 c 0.004,0.745 -0.033,2.068 -0.108,3.971 l 7.554,-2.025 c -1.041,1.487 -1.39,2.867 -1.049,4.143 0.556,2.07 2.092,2.768 4.61,2.094 l 5.665,-1.518 c 1.06,-0.284 1.731,0.096 2.011,1.139 z m -14.805,9.161 c 0.372,-0.065 0.653,-0.246 0.846,-0.541 0.191,-0.295 0.255,-0.627 0.189,-1 -0.066,-0.37 -0.237,-0.655 -0.515,-0.849 -0.278,-0.195 -0.603,-0.259 -0.975,-0.194 -0.371,0.066 -0.663,0.239 -0.874,0.521 -0.213,0.28 -0.286,0.607 -0.219,0.978 0.065,0.372 0.246,0.661 0.545,0.871 0.298,0.207 0.631,0.279 1.003,0.214 z m 16.3,-0.889 -1.059,-6.004 -0.355,0.063 c 0.228,1.284 -0.201,2.021 -1.281,2.211 l -6.79,1.198 c -0.878,0.155 -1.374,-0.09 -1.487,-0.731 -0.044,-0.254 -0.033,-0.586 0.033,-0.999 l -0.38,0.067 -0.648,4.32 9.652,-1.702 c 1.08,-0.189 1.734,0.355 1.96,1.64 z m 2.128,14.186 -0.66,-5.387 -0.358,0.042 c 0.131,1.074 -0.347,1.677 -1.437,1.811 l -6.433,0.789 c -0.631,0.077 -1.13,-0.047 -1.497,-0.373 -0.369,-0.326 -0.587,-0.762 -0.653,-1.307 -0.116,-0.935 0.263,-1.933 1.135,-2.989 l 6.868,-0.844 c 1.09,-0.135 1.699,0.336 1.832,1.408 l 0.358,-0.044 -0.662,-5.388 -0.357,0.045 c 0.13,1.072 -0.348,1.674 -1.438,1.808 l -6.918,0.85 c -0.545,0.067 -0.909,-0.001 -1.089,-0.203 -0.179,-0.203 -0.29,-0.621 -0.334,-1.255 l -0.358,0.045 -0.736,3.926 2.094,-0.258 c -1.251,1.346 -1.788,2.751 -1.608,4.215 0.24,1.957 1.655,2.776 4.241,2.46 l 5.821,-0.715 c 1.09,-0.134 1.7,0.335 1.833,1.406 z m -0.616,12.814 c 0.285,-0.35 0.572,-0.697 0.856,-1.044 0.303,-0.417 0.449,-0.823 0.442,-1.216 -0.019,-1.048 -0.68,-1.636 -1.986,-1.767 0.505,-0.575 0.948,-1.227 1.33,-1.953 0.381,-0.728 0.569,-1.306 0.561,-1.733 -0.013,-0.755 -0.278,-1.402 -0.794,-1.942 -0.514,-0.54 -1.124,-0.804 -1.827,-0.793 -1.509,0.028 -2.677,0.897 -3.505,2.61 -0.562,1.159 -1.063,2.428 -1.502,3.807 l -0.952,0.018 c -1.868,0.031 -2.813,-0.517 -2.833,-1.65 -0.022,-1.285 0.327,-1.934 1.046,-1.946 0.154,-0.003 0.31,0.006 0.463,0.03 0.156,0.023 0.346,0.032 0.568,0.028 0.325,-0.005 0.611,-0.122 0.856,-0.349 0.245,-0.228 0.364,-0.503 0.359,-0.83 -0.006,-0.343 -0.106,-0.615 -0.299,-0.818 -0.191,-0.202 -0.425,-0.301 -0.699,-0.297 -0.926,0.017 -1.664,0.501 -2.213,1.454 -0.465,0.815 -0.69,1.729 -0.673,2.739 0.024,1.372 0.317,2.344 0.875,2.916 0.611,0.625 1.655,0.925 3.128,0.9 l 5.659,-0.1 c 0.668,-0.012 1.007,0.188 1.013,0.601 0.006,0.308 -0.167,0.723 -0.518,1.242 z m -1.281,-4.121 -4.501,0.08 c 0.439,-1.346 0.818,-2.271 1.135,-2.773 0.568,-0.884 1.297,-1.335 2.188,-1.35 1.423,-0.025 2.146,0.589 2.167,1.84 0.013,0.651 -0.317,1.386 -0.989,2.203"
       style="fill:#254aa5;fill-opacity:1;fill-rule:nonzero;stroke:none"
       id="path16" />
    <path
       d="m 291.418,184.861 c 27.481,63.171 2.809,103.041 -50.741,124.192 32.096,-12.981 25.302,-52.746 12.512,-72.884 -12.791,-20.138 -34.574,-36.448 -68.936,-51.917 36.803,14.383 59.792,33.365 70.508,51.127 10.716,17.761 12.674,33.196 9.767,50.519 16.637,-35.511 2.607,-66.77 -30.037,-97.809 37.846,32.584 50.123,67.68 28.718,103.995 31.828,-34.918 23.23,-72.273 1.298,-105.555 26.985,37.386 31.644,76.938 -4.147,110.923 43.034,-26.336 49.141,-62.337 31.058,-112.591"
       style="fill:#254aa5;fill-opacity:1;fill-rule:evenodd;stroke:none"
       id="path18" />
    <path
       d="m 231.138,305.815 c -7.63,7.897 -14.011,12.708 -23.91,17.727 14.099,-0.182 30.983,-3.53 41.891,-6.582 -11.426,1.322 -16.548,0.164 -19.108,-1.598 -2.559,-1.761 -1.605,-4.642 1.127,-9.547"
       style="fill:#254aa5;fill-opacity:1;fill-rule:evenodd;stroke:none"
       id="path20" />
    <path
       d="m 232.495,162.99 c 0.221,5.22 0.737,8.666 8.191,10.455 7.454,1.789 15.664,1.568 29.364,-0.642 13.7,-2.209 24.689,-3.181 38.219,-1.898 -4.59,2.985 -5.976,4.412 -7.793,7.851 -11.831,-0.25 -19.668,0.575 -29.527,3.588 -9.859,3.013 -21.475,6.121 -29.032,5.328 -7.557,-0.793 -12.509,-4.999 -15.144,-14.225 -2.636,9.226 -7.588,13.432 -15.145,14.225 -7.557,0.793 -19.173,-2.315 -29.032,-5.328 -9.859,-3.013 -17.696,-3.838 -29.527,-3.588 -1.817,-3.439 -3.203,-4.866 -7.793,-7.851 13.53,-1.283 24.519,-0.311 38.219,1.898 13.7,2.21 21.91,2.431 29.364,0.642 7.454,-1.789 7.97,-5.235 8.191,-10.455 h 11.445"
       style="fill:#254aa5;fill-opacity:1;fill-rule:evenodd;stroke:none"
       id="path22" />
    <path
       d="m 226.773,333.071 c 58.695,0 106.298,-47.599 106.298,-106.299 0,-58.697 -47.603,-106.297 -106.298,-106.297 -58.699,0 -106.299,47.6 -106.299,106.297 0,58.7 47.6,106.299 106.299,106.299 z m 0,-3.543 c 56.739,0 102.755,-46.013 102.755,-102.756 0,-56.74 -46.016,-102.753 -102.755,-102.753 -56.742,0 -102.756,46.013 -102.756,102.753 0,56.743 46.014,102.756 102.756,102.756"
       style="fill:#254aa5;fill-opacity:1;fill-rule:evenodd;stroke:none"
       id="path24" />
    <path
       d="m 348.212,326.218 c 2.228,-3.262 0.866,-10.161 -2.254,-12.232 -0.779,0.484 -4.19,0.113 -4.59,1.967 -0.341,2.22 1.627,3.283 2.473,5.356 0.805,1.971 0.432,4.283 1.048,5.96 0.031,-0.042 0.062,-0.084 0.093,-0.126 1.265,0.407 2.086,-0.32 3.23,-0.925 z m 15.363,20.114 c 0.659,-0.874 1.459,-1.793 1.527,-2.581 0.158,-1.832 -4.526,-5.33 -7.002,-7.156 -0.822,-0.608 -2.535,-0.937 -2.802,-1.887 1.35,-1.031 2.733,-2.582 4.364,-3.111 0.22,0.098 0.441,0.196 0.661,0.294 0.341,0.707 0.287,1.4 0.637,2.038 0.294,0.218 0.588,0.436 0.882,0.655 0.109,-0.147 0.218,-0.294 0.328,-0.441 -0.478,-1.969 0.743,-4.088 2.154,-5.927 0.345,-0.449 0.191,-0.889 0.621,-1.494 -0.218,-0.298 -0.202,-0.201 -0.081,-0.549 -0.42,-0.312 -0.84,-0.624 -1.26,-0.936 -0.45,0.128 -1.01,-0.083 -1.443,0.101 -0.703,0.683 -1.407,1.367 -2.109,2.05 -3.398,1.795 -6.813,4.55 -10.399,5.18 -2.989,-2.146 -9.397,-3.865 -12.099,-2.927 -2.132,0.74 -4.726,4.845 -2.466,6.478 0.021,0.016 0.042,0.031 0.063,0.047 0.661,-0.238 1.442,-0.228 2.117,-0.481 0.865,-0.726 1.73,-1.452 2.596,-2.178 1.277,-0.699 5.521,-0.019 6.94,0.659 0.079,0.157 0.158,0.313 0.237,0.47 -1.769,3.877 -4.771,3.31 -3.306,8.004 0.104,0.332 0.308,1.738 1.264,1.721 0.247,-0.034 0.378,-0.223 0.593,-0.536 0.389,-1.203 0.975,-2.867 1.993,-3.604 0.364,-0.446 0.728,-0.893 1.093,-1.339 0.829,-0.566 2.353,-1.91 3.302,-1.946 1.252,-0.047 8.058,5.139 8.757,6.505 0.409,0.8 0.428,2.584 1.787,2.99 0.351,-0.033 0.701,-0.066 1.051,-0.099"
       style="fill:#254aa5;fill-opacity:1;fill-rule:nonzero;stroke:none"
       id="path26" />
    <path
       d="m 395.45,298.538 c 1.254,-2.353 -0.893,-4.527 0.642,-6.606 0.415,-0.083 0.293,-0.367 0.675,-0.698 1.383,-1.2 5.117,-2.524 5.134,-5.283 0.01,-1.52 -2.753,-4.08 -4.551,-3.261 -0.413,0.302 -3.039,3.425 -3.073,3.753 -1.92,1.429 -4.107,2.381 -6.079,3.468 -0.033,-0.049 -0.065,-0.098 -0.097,-0.147 0.026,-0.045 0.052,-0.09 0.078,-0.135 0.288,-0.918 1.609,-2.129 1.719,-3.448 0.292,-3.471 0.822,-7.178 -2.928,-9.212 -0.444,0.274 -1.127,0.384 -1.59,0.713 -0.977,0.696 -2.629,3.267 -3.653,2.875 -1.361,-2.795 -6.036,-0.871 -8.416,-0.963 -0.39,-0.455 -0.659,-0.87 -0.616,-1.443 0.392,-0.679 0.785,-1.359 1.177,-2.039 0.784,-0.604 4.306,-3.226 4.48,-4.934 0.203,-1.988 -2.284,-3.081 -3.931,-2.451 -1.08,1.998 -1.51,4.006 -3.879,5.462 -0.753,0.464 -0.683,1.064 -1.446,1.25 -1.409,-0.803 -2.238,-1.65 -3.921,-2.626 -4.594,2.151 -8.265,5.485 -6.825,11.193 0.287,1.138 0.614,2.556 1.727,3.444 0.817,-1.53 0.254,-3.409 0.402,-4.934 0.291,-0.557 0.583,-1.114 0.873,-1.67 1.799,-3.116 3.98,-3.704 6.444,-4.254 0.145,0.114 0.291,0.228 0.437,0.342 0.08,0.227 0.16,0.455 0.24,0.683 -0.393,0.679 -0.785,1.359 -1.177,2.039 -0.454,0.488 -1.62,1.47 -2.296,1.936 -1.352,0.932 -4.135,6.45 -3.666,7.761 0.179,0.498 0.692,0.797 1.202,1.057 0.335,-0.109 0.67,-0.218 1.004,-0.327 1.652,-1.12 1.876,-4.169 3.482,-5.873 0.949,-1.007 3.059,-1.915 3.656,-3.508 0.296,-0.107 0.558,-0.153 0.858,-0.229 1.728,1.848 2.823,1.551 4.831,1.52 0.395,-0.006 1.687,0.203 1.731,0.455 0.239,1.053 -1.964,2.081 -2.553,2.695 -0.261,0.453 -0.523,0.906 -0.785,1.359 2.895,1.989 4.029,-0.859 6.116,-2.902 0.871,-0.852 2.208,-1.355 3.173,-1.884 0.893,-0.49 2.615,-1.477 3.445,-0.004 0.362,0.643 -0.042,1.246 -0.087,2.034 -0.237,4.161 -5.477,6.927 -8.426,8.002 -1.115,0.407 -3.348,1.626 -4.622,-0.312 0.005,-0.412 -0.528,-1.754 -0.528,-1.754 -1.183,-1.224 -2.521,-0.992 -3.547,-1.233 -0.37,0.451 -0.561,0.399 -0.939,0.998 0.189,0.373 0.253,1.174 0.255,1.598 -0.576,0.258 -0.925,0.537 -1.242,1.367 0.231,0.994 4.555,6.236 5.638,6.245 2.402,-1.586 4.618,-1.987 7.07,-2.986 0.886,-0.697 1.771,-1.394 2.657,-2.091 1.949,-0.854 4.17,-1.143 6.218,-1.666 2.526,-0.645 4.339,-2.894 6.867,-3.104 0.041,0.085 0.083,0.169 0.125,0.254 -0.013,0.023 -0.026,0.045 -0.04,0.068 -1.683,0.565 -5.574,2.476 -5.055,5.146 0.282,1.45 2.382,2.172 2.017,3.884 0.353,0.173 0.706,0.346 1.059,0.52 0.198,-0.09 0.31,-0.137 0.536,-0.144 z m 2.962,8.054 c 0.157,-0.272 0.314,-0.544 0.471,-0.816 -1.683,-1.869 -6.713,-7.185 -9.949,-6.469 -2.056,1.997 0.718,5.199 3.125,6.516 1.407,-0.923 4.378,0.679 6.353,0.769"
       style="fill:#254aa5;fill-opacity:1;fill-rule:nonzero;stroke:none"
       id="path28" />
    <path
       d="m 303.91,365.88 c -0.932,-0.257 -4.231,-2.255 -4.221,-3.544 0.022,-0.013 0.045,-0.026 0.068,-0.039 3.396,-2.146 5.485,0.344 4.56,3.347 -0.136,0.079 -0.272,0.157 -0.407,0.236 z m 15.493,16.79 c 0.327,-0.219 0.653,-0.438 0.98,-0.656 -0.155,-1.576 -1.347,-6.136 -2.525,-7.514 -0.762,-0.889 -3.351,-2.982 -3.445,-4.082 0.006,-0.094 0.012,-0.188 0.018,-0.282 1.687,-0.997 3.619,-0.995 4.751,0.066 0.643,0.603 0.135,1.234 0.727,1.573 0.82,-0.662 4.133,-3.193 4.198,-3.873 0.044,-0.538 -0.565,-1.133 -0.785,-1.359 -3.327,1.591 -6.07,0.75 -9.227,0.343 -1.018,-0.132 -1.596,0.959 -2.509,0.361 -1.351,-0.883 -3.371,-4.817 -4.143,-5.763 0.074,-0.134 0.148,-0.267 0.222,-0.4 2.292,-0.912 4.421,2.167 6.355,-2.491 0.581,-1.4 -0.861,-2.39 -1.41,-4.17 -0.4,-1.294 0.484,-3.16 0.173,-4.722 -0.664,-3.336 -5.517,-2.183 -6.931,-0.076 -0.971,1.88 1.748,5.769 0.562,8.194 -0.23,0.072 -0.46,0.145 -0.69,0.217 -3.355,-2.028 -3.649,-6.894 -6.019,-9.483 -0.058,0.003 -0.117,0.007 -0.175,0.01 -1.974,1.663 -1.172,4.792 -0.016,7.349 0.534,1.181 1.765,1.267 1.841,2.562 -0.784,0.762 -2.511,1.474 -3.547,1.233 -0.956,-0.223 -1.528,-1.383 -2.403,-1.966 -1.606,-1.068 -4.002,-2.318 -5.881,-2.494 -0.713,0.462 -1.227,1.219 -1.579,1.817 0.8,1.524 0.5,1.883 0.268,3.289 1.198,1.194 2.781,2.686 3.448,4.715 3.863,0.516 7.521,2.866 11.517,2.684 1.437,-0.065 2.357,-2.654 3.945,-1.643 0.144,0.249 0.288,0.498 0.432,0.747 -0.061,0.368 -0.121,0.734 -0.181,1.101 -0.834,0.306 -1.447,-0.114 -2.209,0.097 -3.111,0.866 -3.001,4.283 -1.287,6.09 0.023,-0.013 0.046,-0.026 0.068,-0.039 0.937,-1.691 3.931,-3.138 5.963,-3.171 0.682,0.538 1.414,1.225 2.092,2.055 0.585,0.961 1.17,1.922 1.755,2.883 1.17,1.102 2.084,1.958 3.128,2.906 0.41,0.373 1.554,3.12 2.1,3.953 0.14,-0.021 0.279,-0.041 0.419,-0.061 z m 5.866,-3.024 c 2.034,-1.568 4.164,-2.66 5.332,-4.891 0.143,-0.274 0.922,-2.289 0.778,-2.262 -0.844,-3.572 -4.552,-3.153 -6.283,-0.994 0.328,0.71 0.447,1.336 0.077,1.859 -0.246,0.202 -0.492,0.405 -0.737,0.607 1.021,2.026 -0.846,4.193 0.833,5.681"
       style="fill:#254aa5;fill-opacity:1;fill-rule:nonzero;stroke:none"
       id="path30" />
    <path
       d="m 200.845,405.16 c -0.154,-0.144 -0.309,-0.288 -0.462,-0.432 0.069,-0.064 0.137,-0.128 0.206,-0.193 0.147,0.062 0.294,0.124 0.441,0.185 0.026,0.114 0.053,0.228 0.08,0.342 -0.038,0.045 -0.075,0.09 -0.113,0.134 -0.051,-0.012 -0.102,-0.024 -0.152,-0.036 z m 0.146,1.084 c -0.058,-0.095 -0.117,-0.189 -0.175,-0.284 0.099,-0.191 0.199,-0.383 0.298,-0.575 0.185,0.125 0.371,0.25 0.556,0.375 -0.03,0.127 -0.06,0.254 -0.091,0.382 -0.037,0.044 -0.074,0.089 -0.112,0.134 -0.159,-0.011 -0.318,-0.022 -0.476,-0.032 z m 2.176,3.742 c 2.093,0.388 4.495,-0.455 5.947,-0.927 0.03,-0.356 0.265,-0.857 0.043,-1.2 -1.013,-2.609 -5.991,-3.142 -7.394,-5.546 1.191,-1.171 2.273,-0.322 3.816,-0.787 2.282,-0.689 7.44,-5.802 5.145,-9.103 -0.608,-0.876 -2.097,-1.48 -2.862,-2.212 -1.016,-0.974 -3.137,0.229 -3.542,-1.728 0.125,-0.751 0.249,-1.501 0.373,-2.251 -0.502,-1.532 -1.744,-2.488 -1.973,-4.259 0.515,-0.516 1.116,-0.439 1.897,-0.518 0.591,0.52 0.545,0.837 0.684,1.534 1.731,0.453 5.205,0.445 6.53,0.017 0.613,-0.198 1.248,-1.681 1.532,-2.378 -0.28,-0.363 -0.411,-1.069 -0.95,-1.435 -1.985,-1.448 -4.185,1.583 -5.98,-0.291 -1.244,-1.298 1.59,-4.082 1.109,-6.028 -1.113,-4.492 -9.38,-3.373 -12.17,-2.082 0.033,0.088 0.066,0.176 0.099,0.265 3.037,2.023 7.754,2.241 8.368,5.858 -0.138,0.12 -0.103,0.107 -0.283,0.175 -2.266,0.315 -4.069,-1.817 -6.265,-1.81 -0.816,0.002 -2.271,-0.252 -3.006,0.093 -0.39,0.284 -0.78,0.568 -1.171,0.851 0.041,0.171 0.081,0.342 0.121,0.513 1.789,0.384 8.322,2.566 8.549,3.4 -0.036,0.153 -0.072,0.306 -0.109,0.458 -0.652,0.582 -0.76,0.243 -1.395,1.121 0.012,0.837 -0.245,1.494 -0.049,2.247 0.328,1.264 1.142,2.566 0.868,4.158 -0.15,0.13 -0.184,0.165 -0.378,0.233 -1.661,0.576 -3.691,-3.074 -5.147,-3.803 -0.012,0.051 -0.024,0.102 -0.036,0.153 -0.551,0.635 -0.357,1.628 -0.257,2.439 0.386,3.119 3.555,4.797 6.474,3.311 1.727,0.365 2.42,1.388 3.339,2.245 0.739,0.69 1.814,1.399 2.197,2.296 1.219,2.855 -3.138,4.648 -4.93,4.799 -2.951,0.249 -4.836,-3.304 -5.747,-4.672 -1.059,-1.59 -2.09,-3.567 -3.334,-4.985 -1.008,-1.15 -1.952,-2.038 -2.496,-3.416 -0.813,-2.059 -0.54,-4.969 -1.037,-7.183 -3.965,-1.035 -5.624,2.413 -5.929,5.61 -0.015,0.156 1.895,2.109 2.259,2.714 0.689,1.4 1.378,2.801 2.068,4.201 0.985,1.519 2.671,2.993 3.897,4.313 1.813,1.955 5.777,4.298 6.929,6.484 -0.006,0.026 -0.012,0.051 -0.018,0.077 -1.856,0.296 -4.431,0.546 -5.63,1.97 0.014,0.057 0.026,0.114 0.04,0.171 4.677,0.186 7.549,2.891 9.804,4.908 z m -17.924,-2.641 c 0.384,-0.058 0.467,-0.168 0.738,-0.39 0.172,-1.076 2.537,-4.684 3.483,-4.819 0.141,-1.82 0.866,-2.261 -0.501,-3.668 -3.877,-0.304 -4.741,1.58 -4.918,5.769 -0.049,1.151 -0.62,1.67 -0.409,2.403 0.535,0.235 1.072,0.47 1.607,0.705"
       style="fill:#254aa5;fill-opacity:1;fill-rule:nonzero;stroke:none"
       id="path32" />
    <path
       d="m 257.012,393.028 c -2.06,-0.644 -2.922,-2.157 -4.307,-3.714 -1.862,-2.093 -6.064,-5.743 -4.18,-9.869 0.909,-1.99 3.727,-4.402 6.88,-3.502 0.772,0.22 0.916,-0.059 1.435,0.468 -0.861,1.675 -1.785,6.094 -3.14,7.155 0.035,0.047 0.069,0.094 0.103,0.141 0.877,-0.152 1.754,-0.304 2.63,-0.456 0.989,-0.574 4.343,-2.816 5.222,-2.497 0.593,2.143 2.154,5.03 1.102,6.818 -0.263,0.018 -0.524,0.037 -0.787,0.056 -0.918,-0.51 -1.431,-2.064 -2.338,-2.462 -0.87,-0.381 -1.179,1.221 -1.292,1.737 -0.453,2.064 0.122,3.296 0.128,5.792 -0.485,0.111 -0.971,0.222 -1.456,0.333 z m 9.273,9.384 c -0.861,-1.346 -2.333,-3.6 -2.408,-5.158 0.047,-0.035 0.095,-0.07 0.142,-0.105 1.184,-0.193 4.013,0.604 4.819,1.156 0.28,1.67 -1.276,3.064 -2.089,4.026 -0.155,0.027 -0.31,0.054 -0.464,0.081 z m -2.677,7.074 c 2.464,-0.407 3.746,-1.533 3.498,-3.712 -0.081,-0.715 -0.823,-1.449 -0.402,-2.32 0.921,-1.904 4.074,-3.135 6.658,-3.862 -0.011,-0.37 -0.022,-0.739 -0.033,-1.109 -1.315,-1.784 -4.303,-2.116 -6.136,-3.238 -0.589,-0.36 -0.934,-1.242 -1.609,-1.473 -1.921,-0.658 -3.747,0.046 -4.339,-2.514 1.077,-1.528 4.292,-1.467 4.92,-3.321 0.304,-0.896 -0.014,-4.58 -0.605,-5.789 -0.318,-0.651 -1.39,-2.402 -1.144,-3.386 0.467,-1.204 2.267,-1.47 3.262,-2.318 1.45,-1.234 2.525,-2.363 2.796,-4.546 0.251,-2.022 -2.493,-3.977 -4.755,-3.079 -1.372,0.545 -2.001,2.283 -2.919,3.373 -0.359,0.426 -1.172,0.697 -1.658,1.004 -0.553,0.35 -2.987,-0.327 -3.254,-0.391 -0.468,0.054 -0.937,0.109 -1.405,0.164 -1.954,-0.258 -4.16,-0.399 -6.294,0.453 -0.121,1.364 -1.061,3.038 -1.948,3.922 -0.103,0.018 -0.207,0.035 -0.309,0.053 -0.061,-0.042 -0.122,-0.085 -0.182,-0.127 -0.2,-1.228 0.692,-5.866 -0.427,-6.139 -0.626,-0.153 -1.58,0.841 -1.799,1.108 -0.809,0.989 -0.618,2.621 -1.02,3.761 -0.661,0.938 -1.322,1.876 -1.982,2.813 -0.257,0.753 0.24,1.581 -0.271,2.117 -0.641,0.675 -5.211,-1.048 -7.109,-0.121 -1.103,0.538 -2.963,2.956 -1.482,4.318 0.687,0.439 1.374,0.877 2.06,1.316 0.491,0.652 -0.03,1.987 0.456,2.629 0.881,-0.065 2.35,-0.796 3.698,-0.72 1.415,0.078 7.185,1.202 7.845,2.065 0.475,1.669 0.95,3.34 1.425,5.01 0.572,1.101 1.605,1.493 1.878,3.019 -0.205,0.161 -0.219,0.232 -0.32,0.454 -2.004,0.35 -3.25,0.559 -4.871,0.844 -0.249,0.5 -0.705,0.849 -0.959,1.361 0.068,0.516 0.042,0.616 0.238,0.914 0.186,0.254 -0.025,0.099 0.272,0.192 0.97,0.085 1.109,-0.807 2.034,-0.671 1.247,0.184 5.264,1.164 6.064,1.896 1.714,1.569 1.597,4.646 3.687,5.653 1.432,-0.23 2.2,-0.65 3.258,-0.963 0.01,-0.202 -0.129,-0.236 0.256,-0.363 -0.789,-2.302 -3.146,-2.978 -4.391,-4.655 -1.512,-2.035 -1.87,-5.021 -2.849,-7.71 -0.185,-0.506 -1.062,-1.92 -0.984,-2.457 1.967,-0.532 1.758,2.19 3.243,2.624 1.51,0.125 3.393,-0.397 4.248,0.617 0.935,1.111 0.419,2.741 1.11,4.109 0.782,1.547 1.857,3.373 2.381,5.004 0.584,1.82 -1.599,2.442 0.169,4.191"
       style="fill:#254aa5;fill-opacity:1;fill-rule:nonzero;stroke:none"
       id="path34" />
    <path
       d="m 69.385,280.918 c 0.311,-1.948 0.956,-3.02 1.865,-4.563 1.349,-0.377 1.466,0.334 2.255,0.533 0.714,-0.164 1.429,-0.328 2.143,-0.492 0.191,0 0.026,-0.097 0.248,0.014 0.622,0.103 0.969,1.006 1.003,1.925 -1.091,1.226 -3.365,3.231 -5.815,2.858 -0.917,-0.139 -1.024,0.394 -1.699,-0.275 z m -0.749,16.611 c 0.458,-4.121 -3.207,-6.474 2.589,-7.924 0.827,-0.207 1.361,-0.114 1.906,0.139 0.007,0.025 0.014,0.051 0.02,0.076 -1.592,2.873 -1.685,5.973 -3.886,8.841 -0.255,-0.034 -0.091,0.025 -0.268,-0.091 -0.12,-0.347 -0.241,-0.694 -0.361,-1.041 z M 51.64,288.678 c 0.466,1.595 6.011,6.212 7.267,6.502 2.004,0.005 3.708,-2.159 5.797,-1.715 1.472,2.336 1.195,5.609 1.456,8.465 0.176,1.935 1.378,4.362 2.83,4.198 1.959,-2.016 2.988,-4.824 3.757,-7.507 0.413,-1.437 0.418,-3.852 2.037,-4.526 0.161,0.092 0.321,0.184 0.481,0.277 1.208,0.512 1.664,3.662 2.442,4.87 0.525,0.116 1.433,0.658 2.21,0.058 1.298,-1.221 0.241,-2.98 0.07,-4.893 -0.198,-2.21 1.501,-4.165 2.065,-6.241 0.257,-0.949 -0.144,-1.592 0.108,-2.628 0.52,-2.145 4.724,-1.482 6.386,-2.849 0.647,-0.533 0.563,-1.486 1.069,-2.074 0.911,-1.057 2.576,-0.91 3.719,-1.89 0.435,-0.496 0.871,-0.992 1.307,-1.488 -0.007,-0.025 -0.013,-0.051 -0.02,-0.076 -2.358,0.571 -5.219,-0.359 -7.265,-0.734 -1.306,-0.24 -3.1,0.946 -4.463,0.627 -0.208,-0.675 -0.416,-1.351 -0.624,-2.026 -1.678,-0.288 -3.934,-0.179 -4.921,-1.688 -0.556,-0.849 0.203,-1.536 -0.478,-2.391 -0.552,-0.065 -1.55,-0.051 -2.099,-0.25 -1.072,-0.389 -1.734,-1.575 -2.924,-1.816 -1.315,-0.266 -2.388,1.417 -3.311,0.075 -0.151,0.04 -0.303,0.081 -0.455,0.122 -0.447,1.465 -3.692,1.657 -5.482,2.281 0.684,1.428 2.027,1.329 2.612,2.469 0.627,1.221 -0.521,2.203 -0.73,3.039 -0.612,2.456 -0.348,5.378 -1.168,7.463 -0.871,0.287 -1.742,0.575 -2.613,0.862 -1.074,0.234 -2.15,0.468 -3.224,0.702 -0.679,0.397 -1.254,1.041 -1.844,1.306 -1.486,0.668 -3.009,0.327 -3.956,1.304 -0.012,0.057 -0.024,0.114 -0.036,0.172"
       style="fill:#254aa5;fill-opacity:1;fill-rule:nonzero;stroke:none"
       id="path36" />
    <path
       d="m 105.46,336.031 c 0.065,-0.437 0.208,-0.905 0.555,-1.332 0.666,-0.23 1.34,-0.584 1.997,-0.666 0.019,0.018 0.037,0.037 0.056,0.056 -0.055,0.314 -0.111,0.628 -0.167,0.943 -0.75,0.864 -0.933,1.339 -1.83,1.498 -0.204,-0.166 -0.407,-0.333 -0.611,-0.499 z m -6.715,-6.16 c -0.267,-1.067 -0.383,-1.557 -0.111,-2.664 0.037,0.038 0.074,0.074 0.111,0.111 0.13,0.019 0.26,0.038 0.389,0.056 0.251,0.808 0.223,1.456 0.333,2.22 -0.111,0.11 -0.222,0.222 -0.333,0.333 -0.129,-0.019 -0.259,-0.037 -0.389,-0.056 z m 2.109,3.551 c 0.074,-0.332 0.148,-0.665 0.222,-0.998 0.318,-0.312 0.37,-0.34 0.666,-0.333 0.018,0.093 0.037,0.185 0.056,0.277 -0.019,0.204 -0.038,0.407 -0.056,0.611 -0.299,0.315 -0.518,0.467 -0.777,0.554 -0.037,-0.036 -0.074,-0.073 -0.111,-0.111 z m -7.935,17.924 c -1.202,-1.534 -2.405,-3.07 -3.607,-4.605 -1.925,-3.54 -1.679,-7.622 -0.777,-11.21 0.192,-0.764 1.044,-3.566 2.053,-3.94 0.093,-0.018 0.185,-0.036 0.278,-0.055 1.302,1.776 0.305,10.063 4.605,9.822 2.179,0.723 3.403,-4.062 4.385,-5.161 1.44,0.136 3.861,0.211 5.049,1.72 -0.2,0.44 -0.198,0.713 0.277,1.166 1.779,0.263 3.277,1.439 4.995,0.777 0.444,-0.444 0.888,-0.888 1.331,-1.332 -0.061,-1.401 -0.397,-2.813 -0.61,-4.384 -0.465,-3.436 -0.352,-6.909 -2.22,-10.433 -0.62,-1.17 -1.634,-1.662 -2.441,-2.441 -1.353,0.519 -2.208,0.636 -3.774,2.22 0.038,0.999 0.074,1.997 0.111,2.996 -0.129,0.092 -0.259,0.186 -0.388,0.278 -0.462,0.069 -0.458,-0.915 -1.054,-1.166 -1.379,-0.579 -3.139,-1.255 -4.329,0.444 -0.169,0.242 -0.686,0.5 -0.666,0.888 -0.267,1.477 3.375,8.484 0.056,8.712 -0.037,0.037 -0.074,0.074 -0.111,0.111 -0.779,-1.497 -3.699,-5.349 -3.385,-6.714 0.048,-0.921 1.59,-1.566 1.997,-2.775 0.925,-2.742 4.709,-6.759 7.547,-8.989 0.972,-0.764 0.743,-1.637 1.721,-1.942 0.825,0.791 1.599,0.293 2.441,0.665 1.087,0.481 3.621,4.357 4.44,5.66 -0.074,0.075 -0.148,0.148 -0.222,0.223 -0.39,-0.091 -0.65,0.199 -0.888,0.332 -0.019,0.056 -0.037,0.111 -0.056,0.167 1.032,0.946 2.737,0.389 3.385,1.942 0.332,0.795 -0.184,1.537 0.167,2.386 1.365,0.552 3.785,0.452 4.661,2.331 1.949,4.176 -5.81,12.768 -10.432,15.76 -0.706,0.456 -2.192,2.31 -3.219,2.774 -0.629,0.592 -1.258,1.184 -1.886,1.776 -2.329,1.419 -4.491,3.531 -6.826,4.162 -0.738,-0.521 -1.696,-1.247 -2.608,-2.165 z m -2.997,0.111 c 2.058,2.1 4.139,4.124 6.215,4.44 4.94,0.75 9.897,-4.792 14.539,-9.434 1.572,-1.572 3.145,-3.145 4.717,-4.717 2.575,-3.307 7.652,-5.79 8.546,-9.544 0.371,-1.561 -0.96,-8.822 -3.941,-9.49 -1.43,-0.32 -4.842,0.6 -6.048,-1.498 -0.344,-0.597 -0.459,-1.398 -0.666,-2.108 -0.141,-0.484 -3.659,-5.232 -4.55,-5.66 -1.081,-0.52 -1.965,-0.202 -2.997,-0.333 -0.379,-1.047 0.241,-1.835 -0.776,-2.886 -0.019,-0.018 -0.037,-0.037 -0.056,-0.056 -1.012,0.237 -2.251,0.463 -3.385,0.833 -0.341,0.112 -2.549,2.247 -2.719,2.719 -0.73,2.03 -2.428,4.287 -3.774,6.326 -1.152,1.746 -2.928,2.735 -3.884,3.33 -0.962,0.777 -1.924,1.553 -2.885,2.331 -0.695,0.46 -2.2,1.287 -2.831,2.385 -3.053,5.317 -1.878,7.628 -1.11,12.875 0.247,1.686 1.466,3.363 1.887,4.994 0.185,0.185 0.37,0.37 0.555,0.555 0.48,0.862 1.253,2.26 1.665,3.218 0.5,0.574 0.999,1.147 1.498,1.72"
       style="fill:#254aa5;fill-opacity:1;fill-rule:nonzero;stroke:none"
       id="path38" />
    <path
       d="m 137.54,359.376 c 0.03,-1.265 -0.554,-4.71 -0.033,-5.659 0.044,0.029 0.087,0.057 0.131,0.086 0.175,0.115 0.349,0.23 0.525,0.345 0.052,1.742 2.273,3.47 0.247,5.332 -0.181,0.037 -0.362,0.074 -0.543,0.112 -0.109,-0.072 -0.219,-0.144 -0.327,-0.216 z m 12.576,10.724 c -0.222,-1.301 -1.087,-2.456 -1.175,-3.781 0.087,-0.131 0.173,-0.262 0.259,-0.393 0.095,-10e-4 0.188,-0.002 0.283,-0.002 1.09,0.748 2.964,3.42 1.525,4.105 -0.438,0.209 -0.341,0.35 -0.892,0.071 z m -14.354,-5.599 c -0.255,-0.231 -0.51,-0.462 -0.766,-0.692 0.079,-0.168 0.158,-0.335 0.237,-0.502 0.532,0.059 0.961,-0.006 1.439,0.383 0.045,0.218 0.09,0.435 0.134,0.653 -0.181,0.131 -0.361,0.263 -0.542,0.395 -0.167,-0.079 -0.335,-0.158 -0.502,-0.237 z m 19.949,13.228 c -0.055,-0.362 -0.05,-0.621 0.124,-1.045 0.051,-0.03 0.101,-0.059 0.152,-0.088 0.183,0.245 0.366,0.491 0.548,0.737 -0.05,0.123 -0.1,0.247 -0.15,0.37 -0.115,0.081 -0.231,0.162 -0.347,0.242 -0.109,-0.072 -0.218,-0.144 -0.327,-0.216 z m -16.184,-9.528 c -0.853,-1.45 -1.665,-4.349 0.708,-5.641 0.073,0.079 0.146,0.159 0.219,0.238 0.59,1.513 1.305,4.702 0.602,6.222 -0.447,-0.144 -0.985,-0.45 -1.529,-0.819 z m 7.208,8.317 c -0.114,-0.308 -0.204,-0.408 -0.156,-0.76 0.043,-0.161 0.086,-0.321 0.128,-0.48 0.21,-0.081 0.42,-0.162 0.63,-0.243 0.124,0.144 0.248,0.289 0.372,0.433 -0.267,0.578 -0.151,0.904 -0.602,1.201 -0.124,-0.051 -0.248,-0.101 -0.372,-0.151 z m -8.838,-4.128 c -0.312,-0.823 -0.908,-2.274 -0.018,-3.113 0.168,0.079 0.335,0.158 0.502,0.237 0.424,0.963 0.66,1.648 0.56,2.718 -0.433,0.526 -0.663,0.262 -1.044,0.158 z m 3.416,18.786 c 2.191,1.428 7.532,-1.635 9.232,-3.318 0.984,-0.973 0.459,-2.355 1.594,-2.991 1.464,-0.82 3.199,-0.813 4.67,-1.529 0.899,-0.437 1.544,-1.52 2.472,-1.755 1.281,-0.324 2.835,0.523 4.047,-0.154 0.427,-0.22 0.596,-0.676 0.625,-1.092 -1.355,-2.288 -5.374,-5.21 -5.073,-7.85 0.262,-2.294 2.243,-3.656 2.904,-5.98 0.772,-2.029 1.544,-4.058 2.316,-6.086 0.114,-0.453 0.197,-1.975 0.618,-2.224 0.122,-0.898 0.082,-1.945 0.159,-2.809 0.078,-0.895 1.042,-1.89 0.856,-2.443 -0.029,0.044 -0.058,0.088 -0.086,0.131 -2.436,0.286 -4.491,2.489 -6.372,4.826 -1.538,1.911 -2.578,5.107 -4.188,6.074 -0.058,-0.006 -0.116,-0.013 -0.174,-0.02 -3.032,-2.177 -3.492,-5.323 -7.528,-7.118 -1.018,1.035 -3.5,3.442 -3.214,5.025 0.198,1.103 1.159,2.068 1.171,3.214 -0.128,0.48 -0.255,0.96 -0.383,1.439 -0.044,0.833 0.235,1.823 0.32,2.654 0.077,0.75 -1.148,4.428 -2.153,4.126 -0.878,-0.264 -0.849,-3.083 -0.827,-3.739 0.056,-1.657 0.645,-3.383 0.711,-5.076 0.132,-3.392 -1.501,-4.111 0.259,-8.098 0.799,-1.81 5.423,-5.013 5.255,-5.842 -0.015,-0.166 -0.031,-0.333 -0.046,-0.5 -0.535,-0.391 -0.676,-0.51 -1.135,-0.559 -1.052,0.415 -2.312,0.878 -3.277,1.694 -0.869,0.735 -1.308,1.676 -2.23,2.103 -0.08,-0.022 -0.16,-0.043 -0.24,-0.064 -1.541,-2.874 -0.901,-5.999 -5.554,-8.261 -0.218,0.044 -0.435,0.089 -0.652,0.134 -0.732,1.063 -3.029,3.365 -2.999,4.697 0.26,1.08 0.52,2.159 0.78,3.238 0.26,2.684 0.245,5.353 0.569,7.985 -0.094,0.095 -0.188,0.19 -0.281,0.285 -0.059,-0.007 -0.117,-0.014 -0.175,-0.021 -0.901,-1.301 -3.201,-4.452 -5.055,-4.738 -2.483,3.692 0.092,7.371 0.909,10.465 0.463,1.754 1.752,8.378 1.428,9.96 -0.257,1.256 -1.131,1.866 -1.354,3.055 1.15,1.315 2.498,1.268 3.863,1.698 1.174,-2.076 0.334,-3.506 0.164,-5.53 -0.342,-4.087 -1.963,-8.29 -3.03,-12.237 -0.3,-1.108 -0.867,-2.11 -0.955,-3.259 0.13,-0.103 0.26,-0.205 0.39,-0.307 0.504,0.426 6.032,5.822 6.129,6.103 0.889,2.556 -3.012,8.706 2.014,9.5 0.82,-0.456 3.178,-1.539 4.082,-1.634 0.066,0.043 0.132,0.086 0.197,0.129 0.754,2.753 -0.133,3.063 -2.346,4.563 0.154,1.39 0.458,2.2 1.391,3.453 1.26,-0.763 2.319,-1.074 3.608,-0.914 1.146,2.372 -4.233,6.758 -3.406,9.597"
       style="fill:#254aa5;fill-opacity:1;fill-rule:nonzero;stroke:none"
       id="path40" />
  </g>
</svg>
